<svg width="110" height="27" viewBox="0 0 110 27" fill="none" xmlns="http://www.w3.org/2000/svg">
<path d="M47.1162 20.5808H43.9135V16.1714H33.6513V20.5808H30.4937V13.1943H31.9935C34.0835 9.41267 35.2376 5.01458 35.4556 0H44.8156V13.1943H47.1162V20.5808ZM41.1618 13.1943V3.03355H38.4102C38.3275 4.52966 38.0418 6.21371 37.5532 8.08572C37.0645 9.95773 36.4593 11.6606 35.7375 13.1943H41.1618Z" fill="#F15045"/>
<path d="M59.8368 11.4125H52.3037C52.424 13.089 53.4803 13.9273 55.4725 13.9273C56.7431 13.9273 57.8595 13.6266 58.8219 13.0251V15.5963C57.7543 16.1677 56.3672 16.4534 54.6606 16.4534C52.7961 16.4534 51.3489 15.9384 50.3189 14.9084C49.2889 13.8709 48.7739 12.4274 48.7739 10.578C48.7739 8.66086 49.3303 7.1422 50.4429 6.022C51.5556 4.9018 52.9239 4.3417 54.5478 4.3417C56.2319 4.3417 57.5325 4.84166 58.4497 5.84157C59.3744 6.84147 59.8368 8.19849 59.8368 9.91262V11.4125ZM56.5326 9.22471C56.5326 7.57073 55.8635 6.74374 54.5253 6.74374C53.9539 6.74374 53.4577 6.98056 53.0367 7.4542C52.6232 7.92784 52.3713 8.51801 52.2811 9.22471H56.5326Z" fill="#F15045"/>
<path d="M73.0875 16.1714H69.5126V11.3448H65.5205V16.1714H61.9569V4.62363H65.5205V8.89768H69.5126V4.62363H73.0875V16.1714Z" fill="#F15045"/>
<path d="M76.0985 16.1714V4.62363H79.662V8.66086H82.7069C84.015 8.66086 85.0337 8.98037 85.763 9.61941C86.4922 10.2509 86.8569 11.1418 86.8569 12.2921C86.8569 13.4724 86.496 14.416 85.7743 15.1227C85.0525 15.8218 84.0526 16.1714 82.7745 16.1714H76.0985ZM79.662 10.905V13.9047H81.3874C82.5903 13.9047 83.1918 13.3897 83.1918 12.3598C83.1918 11.3899 82.6054 10.905 81.4326 10.905H79.662Z" fill="#F15045"/>
<path d="M96.5552 7.33015H92.5857V16.1714H89.0221V4.62363H96.5552V7.33015Z" fill="#F15045"/>
<path d="M109.975 16.1714H106.738V8.61575C106.445 9.20968 106.13 9.7585 105.791 10.2622L101.867 16.1714H98.4949V4.62363H101.754V11.9425C101.995 11.4388 102.258 10.9689 102.543 10.5329L106.468 4.62363H109.975V16.1714Z" fill="#F15045"/>
<path d="M16.6225 20.5808H13.4198V16.1714H3.1576V20.5808H0V13.1943H1.49986C3.58989 9.41267 4.74392 5.01458 4.96195 0H14.322V13.1943H16.6225V20.5808ZM10.6682 13.1943V3.03355H7.91656C7.83386 4.52966 7.54818 6.21371 7.0595 8.08572C6.57082 9.95773 5.96561 11.6606 5.24388 13.1943H10.6682Z" fill="#201E1E"/>
<path d="M28.5763 16.1714H25.2044V14.5137H25.1593C24.385 15.8068 23.2385 16.4534 21.7198 16.4534C20.5996 16.4534 19.7162 16.1376 19.0697 15.5061C18.4306 14.867 18.1111 14.0175 18.1111 12.9575C18.1111 10.7171 19.4381 9.42394 22.0919 9.07811L25.227 8.66086C25.227 7.39781 24.5428 6.76629 23.1746 6.76629C21.7987 6.76629 20.4906 7.17603 19.2501 7.9955V5.31154C19.7463 5.05592 20.4229 4.83038 21.28 4.63491C22.1446 4.43944 22.9302 4.3417 23.6369 4.3417C26.9298 4.3417 28.5763 5.98441 28.5763 9.26982V16.1714ZM25.227 11.4801V10.702L23.1294 10.9727C21.9717 11.123 21.3928 11.6455 21.3928 12.5402C21.3928 12.9462 21.5318 13.2807 21.81 13.5439C22.0957 13.7995 22.4791 13.9273 22.9603 13.9273C23.6294 13.9273 24.1745 13.698 24.5955 13.2394C25.0165 12.7733 25.227 12.1868 25.227 11.4801Z" fill="#201E1E"/>
<rect y="24.1758" width="110" height="2.01465" fill="#F15045"/>
</svg>
