<svg width="549" height="536" viewBox="0 0 549 536" fill="none" xmlns="http://www.w3.org/2000/svg">
<path d="M32.6641 19.2109C30.8477 19.2109 29.3916 18.6221 28.2959 17.4443C27.2061 16.2666 26.6611 14.7344 26.6611 12.8477C26.6611 10.8203 27.2178 9.20312 28.3311 7.99609C29.4443 6.78906 30.9561 6.18555 32.8662 6.18555C34.6357 6.18555 36.0596 6.77148 37.1377 7.94336C38.2217 9.11523 38.7637 10.6475 38.7637 12.54C38.7637 14.5967 38.21 16.2227 37.1025 17.418C35.9951 18.6133 34.5156 19.2109 32.6641 19.2109ZM32.7607 8.02246C31.6064 8.02246 30.666 8.45312 29.9395 9.31445C29.2188 10.1758 28.8584 11.3096 28.8584 12.7158C28.8584 14.1162 29.21 15.2441 29.9131 16.0996C30.6162 16.9551 31.5361 17.3828 32.6729 17.3828C33.8799 17.3828 34.832 16.9756 35.5293 16.1611C36.2266 15.3467 36.5752 14.207 36.5752 12.7422C36.5752 11.2363 36.2354 10.0732 35.5557 9.25293C34.8818 8.43262 33.9502 8.02246 32.7607 8.02246ZM47.2891 18.5869C46.5684 19.0029 45.7158 19.2109 44.7314 19.2109C43.3955 19.2109 42.3174 18.7949 41.4971 17.9629C40.6768 17.125 40.2666 16.041 40.2666 14.7109C40.2666 13.2285 40.7061 12.0391 41.585 11.1426C42.4697 10.2402 43.6504 9.78906 45.127 9.78906C45.9473 9.78906 46.6709 9.93262 47.2979 10.2197V12.1182C46.6709 11.6494 46.0029 11.415 45.2939 11.415C44.4326 11.415 43.7266 11.708 43.1758 12.2939C42.625 12.874 42.3496 13.6357 42.3496 14.5791C42.3496 15.5107 42.6074 16.2461 43.123 16.7852C43.6445 17.3242 44.3418 17.5938 45.2148 17.5938C45.9473 17.5938 46.6387 17.333 47.2891 16.8115V18.5869ZM57.335 19H55.2871V15.0625H51.3672V19H49.3193V10H51.3672V13.5332H55.2871V10H57.335V19ZM63.9795 19.2109C62.5908 19.2109 61.4805 18.792 60.6484 17.9541C59.8223 17.1104 59.4092 15.9941 59.4092 14.6055C59.4092 13.0938 59.8398 11.9131 60.7012 11.0635C61.5684 10.2139 62.7344 9.78906 64.1992 9.78906C65.6055 9.78906 66.7012 10.2021 67.4863 11.0283C68.2715 11.8545 68.6641 13 68.6641 14.4648C68.6641 15.9004 68.2393 17.0518 67.3896 17.9189C66.5459 18.7803 65.4092 19.2109 63.9795 19.2109ZM64.0762 11.415C63.2793 11.415 62.6494 11.6934 62.1865 12.25C61.7236 12.8066 61.4922 13.5742 61.4922 14.5527C61.4922 15.4961 61.7266 16.2402 62.1953 16.7852C62.6641 17.3242 63.291 17.5938 64.0762 17.5938C64.8789 17.5938 65.4941 17.3271 65.9219 16.7939C66.3555 16.2607 66.5723 15.502 66.5723 14.5176C66.5723 13.5273 66.3555 12.7627 65.9219 12.2236C65.4941 11.6846 64.8789 11.415 64.0762 11.415ZM70.7471 19V10H75.0449C76.0117 10 76.7764 10.1963 77.3389 10.5889C77.9014 10.9814 78.1826 11.5176 78.1826 12.1973C78.1826 13.3457 77.5938 14.043 76.416 14.2891C77.8164 14.4648 78.5166 15.1562 78.5166 16.3633C78.5166 17.1074 78.2207 17.7344 77.6289 18.2441C77.0371 18.748 76.3018 19 75.4229 19H70.7471ZM72.7861 11.4414V13.6826H74.5879C75.6074 13.6826 76.1172 13.2871 76.1172 12.4961C76.1172 11.793 75.6719 11.4414 74.7812 11.4414H72.7861ZM72.7861 15.0977V17.5498H74.8779C75.9209 17.5498 76.4424 17.1279 76.4424 16.2842C76.4424 15.4932 75.877 15.0977 74.7461 15.0977H72.7861ZM88.7119 19H86.6641V15.0625H82.7441V19H80.6963V10H82.7441V13.5332H86.6641V10H88.7119V19ZM95.3564 19.2109C93.9678 19.2109 92.8574 18.792 92.0254 17.9541C91.1992 17.1104 90.7861 15.9941 90.7861 14.6055C90.7861 13.0938 91.2168 11.9131 92.0781 11.0635C92.9453 10.2139 94.1113 9.78906 95.5762 9.78906C96.9824 9.78906 98.0781 10.2021 98.8633 11.0283C99.6484 11.8545 100.041 13 100.041 14.4648C100.041 15.9004 99.6162 17.0518 98.7666 17.9189C97.9229 18.7803 96.7861 19.2109 95.3564 19.2109ZM95.4531 11.415C94.6562 11.415 94.0264 11.6934 93.5635 12.25C93.1006 12.8066 92.8691 13.5742 92.8691 14.5527C92.8691 15.4961 93.1035 16.2402 93.5723 16.7852C94.041 17.3242 94.668 17.5938 95.4531 17.5938C96.2559 17.5938 96.8711 17.3271 97.2988 16.7939C97.7324 16.2607 97.9492 15.502 97.9492 14.5176C97.9492 13.5273 97.7324 12.7627 97.2988 12.2236C96.8711 11.6846 96.2559 11.415 95.4531 11.415ZM109.744 15.0537H103.609C103.633 15.8857 103.888 16.5273 104.374 16.9785C104.866 17.4297 105.54 17.6553 106.396 17.6553C107.356 17.6553 108.238 17.3682 109.041 16.7939V18.4375C108.221 18.9531 107.137 19.2109 105.789 19.2109C104.465 19.2109 103.425 18.8037 102.669 17.9893C101.919 17.1689 101.544 16.0176 101.544 14.5352C101.544 13.1348 101.957 11.9951 102.783 11.1162C103.615 10.2314 104.646 9.78906 105.877 9.78906C107.107 9.78906 108.06 10.1846 108.733 10.9756C109.407 11.7666 109.744 12.8652 109.744 14.2715V15.0537ZM107.775 13.6123C107.77 12.8799 107.597 12.3115 107.257 11.9072C106.917 11.4971 106.448 11.292 105.851 11.292C105.265 11.292 104.767 11.5059 104.356 11.9336C103.952 12.3613 103.703 12.9209 103.609 13.6123H107.775Z" fill="#F15045"/>
<path d="M469.074 22.4014H467.202V19H458.642V22.4014H456.778V17.2246H457.842C458.633 15.7422 459.304 14.0137 459.854 12.0391C460.405 10.0586 460.716 8.17773 460.786 6.39648H467.334V17.2246H469.074V22.4014ZM465.242 17.2246V8.19824H462.518C462.436 9.51074 462.151 11.0488 461.665 12.8125C461.179 14.5762 460.637 16.0469 460.039 17.2246H465.242ZM475.024 19.2109C473.636 19.2109 472.525 18.792 471.693 17.9541C470.867 17.1104 470.454 15.9941 470.454 14.6055C470.454 13.0938 470.885 11.9131 471.746 11.0635C472.613 10.2139 473.779 9.78906 475.244 9.78906C476.65 9.78906 477.746 10.2021 478.531 11.0283C479.316 11.8545 479.709 13 479.709 14.4648C479.709 15.9004 479.284 17.0518 478.435 17.9189C477.591 18.7803 476.454 19.2109 475.024 19.2109ZM475.121 11.415C474.324 11.415 473.694 11.6934 473.231 12.25C472.769 12.8066 472.537 13.5742 472.537 14.5527C472.537 15.4961 472.771 16.2402 473.24 16.7852C473.709 17.3242 474.336 17.5938 475.121 17.5938C475.924 17.5938 476.539 17.3271 476.967 16.7939C477.4 16.2607 477.617 15.502 477.617 14.5176C477.617 13.5273 477.4 12.7627 476.967 12.2236C476.539 11.6846 475.924 11.415 475.121 11.415ZM489.808 19H487.76V15.0625H483.84V19H481.792V10H483.84V13.5332H487.76V10H489.808V19ZM499.37 19H497.393V17.5938H497.357C496.736 18.6719 495.825 19.2109 494.624 19.2109C493.739 19.2109 493.045 18.9707 492.541 18.4902C492.043 18.0098 491.794 17.374 491.794 16.583C491.794 14.8838 492.772 13.8936 494.729 13.6123L497.401 13.2344C497.401 11.9512 496.792 11.3096 495.573 11.3096C494.501 11.3096 493.534 11.6787 492.673 12.417V10.6328C493.622 10.0703 494.718 9.78906 495.96 9.78906C498.233 9.78906 499.37 10.9082 499.37 13.1465V19ZM497.401 14.5791L495.512 14.8428C494.926 14.9189 494.483 15.0625 494.185 15.2734C493.892 15.4785 493.745 15.8418 493.745 16.3633C493.745 16.7441 493.88 17.0576 494.149 17.3037C494.425 17.5439 494.791 17.6641 495.248 17.6641C495.869 17.6641 496.382 17.4473 496.786 17.0137C497.196 16.5742 497.401 16.0234 497.401 15.3613V14.5791ZM508.001 11.626H505.435V19H503.387V11.626H500.803V10H508.001V11.626ZM520.578 19H518.539V10H520.578V19ZM509.618 19V10H511.657V13.3223H514.118C515.05 13.3223 515.791 13.5684 516.342 14.0605C516.893 14.5469 517.168 15.2266 517.168 16.0996C517.168 16.9961 516.881 17.7051 516.307 18.2266C515.738 18.7422 515.021 19 514.153 19H509.618ZM511.657 14.79V17.5322H513.521C514.552 17.5322 515.067 17.0605 515.067 16.1172C515.067 15.2324 514.546 14.79 513.503 14.79H511.657Z" fill="#342F36"/>
<path d="M254.95 19H252.226L247.84 13.2344C247.676 13.0176 247.576 12.8711 247.541 12.7949H247.506V19H245.414V6.39648H247.506V12.3203H247.541C247.611 12.1914 247.711 12.0479 247.84 11.8896L252.067 6.39648H254.572L249.624 12.4434L254.95 19ZM263.098 19H261.12V17.5938H261.085C260.464 18.6719 259.553 19.2109 258.352 19.2109C257.467 19.2109 256.772 18.9707 256.269 18.4902C255.771 18.0098 255.521 17.374 255.521 16.583C255.521 14.8838 256.5 13.8936 258.457 13.6123L261.129 13.2344C261.129 11.9512 260.52 11.3096 259.301 11.3096C258.229 11.3096 257.262 11.6787 256.4 12.417V10.6328C257.35 10.0703 258.445 9.78906 259.688 9.78906C261.961 9.78906 263.098 10.9082 263.098 13.1465V19ZM261.129 14.5791L259.239 14.8428C258.653 14.9189 258.211 15.0625 257.912 15.2734C257.619 15.4785 257.473 15.8418 257.473 16.3633C257.473 16.7441 257.607 17.0576 257.877 17.3037C258.152 17.5439 258.519 17.6641 258.976 17.6641C259.597 17.6641 260.109 17.4473 260.514 17.0137C260.924 16.5742 261.129 16.0234 261.129 15.3613V14.5791ZM267.668 17.6729H267.633V23.1396H265.594V10H267.633V11.582H267.668C268.365 10.3867 269.385 9.78906 270.727 9.78906C271.869 9.78906 272.76 10.1904 273.398 10.9932C274.037 11.7959 274.356 12.874 274.356 14.2275C274.356 15.7275 273.996 16.9287 273.275 17.8311C272.555 18.7334 271.57 19.1846 270.322 19.1846C269.174 19.1846 268.289 18.6807 267.668 17.6729ZM267.615 14.1221V15.2383C267.615 15.8945 267.823 16.4512 268.239 16.9082C268.661 17.3652 269.194 17.5938 269.839 17.5938C270.595 17.5938 271.187 17.3008 271.614 16.7148C272.048 16.123 272.265 15.2998 272.265 14.2451C272.265 13.3604 272.062 12.6689 271.658 12.1709C271.26 11.667 270.718 11.415 270.032 11.415C269.306 11.415 268.72 11.6729 268.274 12.1885C267.835 12.7041 267.615 13.3486 267.615 14.1221ZM282.275 11.626H279.709V19H277.661V11.626H275.077V10H282.275V11.626ZM290.801 19H288.823V17.5938H288.788C288.167 18.6719 287.256 19.2109 286.055 19.2109C285.17 19.2109 284.476 18.9707 283.972 18.4902C283.474 18.0098 283.225 17.374 283.225 16.583C283.225 14.8838 284.203 13.8936 286.16 13.6123L288.832 13.2344C288.832 11.9512 288.223 11.3096 287.004 11.3096C285.932 11.3096 284.965 11.6787 284.104 12.417V10.6328C285.053 10.0703 286.148 9.78906 287.391 9.78906C289.664 9.78906 290.801 10.9082 290.801 13.1465V19ZM288.832 14.5791L286.942 14.8428C286.356 14.9189 285.914 15.0625 285.615 15.2734C285.322 15.4785 285.176 15.8418 285.176 16.3633C285.176 16.7441 285.311 17.0576 285.58 17.3037C285.855 17.5439 286.222 17.6641 286.679 17.6641C287.3 17.6641 287.812 17.4473 288.217 17.0137C288.627 16.5742 288.832 16.0234 288.832 15.3613V14.5791Z" fill="#342F36"/>
<rect y="46" width="548.827" height="91.4712" rx="12" fill="#FAFAFA"/>
<path d="M40.3193 74.6417H38.4521V69.7823H33.1787V74.6417H31.3193V63.4386H33.1787V68.1495H38.4521V63.4386H40.3193V74.6417ZM50.1475 74.6417H48.5068V68.7745C48.4027 68.9829 48.2438 69.2719 48.0303 69.6417L44.6631 74.6417H42.8818V66.6417H44.5459V72.3917C44.6032 72.2563 44.7256 72.0219 44.9131 71.6886L48.3271 66.6417H50.1475V74.6417ZM59.7881 74.6417H57.4834L54.374 70.7433H54.3428V74.6417H52.5225V66.6417H54.3428V70.3214H54.374L57.3115 66.6417H59.5303L56.2021 70.4542L59.7881 74.6417ZM68.0537 74.6417H66.2334V71.1417H62.749V74.6417H60.9287V66.6417H62.749V69.7823H66.2334V66.6417H68.0537V74.6417ZM77.1865 71.1339H71.7334C71.7542 71.8735 71.9808 72.4438 72.4131 72.8448C72.8506 73.2459 73.4495 73.4464 74.21 73.4464C75.0641 73.4464 75.848 73.1912 76.5615 72.6808V74.1417C75.8324 74.6001 74.8688 74.8292 73.6709 74.8292C72.4938 74.8292 71.5693 74.4672 70.8975 73.7433C70.2308 73.0141 69.8975 71.9907 69.8975 70.673C69.8975 69.4282 70.2646 68.4152 70.999 67.6339C71.7386 66.8475 72.6553 66.4542 73.749 66.4542C74.8428 66.4542 75.6891 66.8058 76.2881 67.5089C76.887 68.212 77.1865 69.1886 77.1865 70.4386V71.1339ZM75.4365 69.8527C75.4313 69.2016 75.2777 68.6964 74.9756 68.337C74.6735 67.9725 74.2568 67.7902 73.7256 67.7902C73.2048 67.7902 72.762 67.9803 72.3975 68.3605C72.0381 68.7407 71.8167 69.2381 71.7334 69.8527H75.4365ZM86.1787 74.6417H84.5381V68.7745C84.4339 68.9829 84.2751 69.2719 84.0615 69.6417L80.6943 74.6417H78.9131V66.6417H80.5771V72.3917C80.6344 72.2563 80.7568 72.0219 80.9443 71.6886L84.3584 66.6417H86.1787V74.6417ZM85.6553 62.7902C85.5719 63.5714 85.249 64.1886 84.6865 64.6417C84.1292 65.0896 83.4287 65.3136 82.585 65.3136C81.7204 65.3136 81.0146 65.0896 80.4678 64.6417C79.9261 64.1886 79.6292 63.5714 79.5771 62.7902H81.085C81.1579 63.7381 81.6657 64.212 82.6084 64.212C83.0251 64.212 83.3688 64.087 83.6396 63.837C83.9157 63.587 84.085 63.2381 84.1475 62.7902H85.6553ZM97.9678 74.6417H96.2334V68.2355C96.1292 68.5584 95.9704 69.035 95.7568 69.6652L93.9521 74.6417H92.3428L90.5068 69.6495C90.4079 69.3787 90.249 68.9021 90.0303 68.2198V74.6417H88.5537V66.6417H90.9131L92.749 71.5792C92.8792 71.9386 93.0459 72.436 93.249 73.0714L93.749 71.6105L95.5459 66.6417H97.9678V74.6417Z" fill="#F15045"/>
<path d="M41.749 102.915H39.9385L33.4521 92.8687C33.2881 92.6167 33.1533 92.353 33.0479 92.0776H32.9951C33.042 92.3472 33.0654 92.9243 33.0654 93.8091V102.915H31.5889V90.311H33.5049L39.8154 100.199C40.0791 100.609 40.249 100.89 40.3252 101.042H40.3604C40.3018 100.679 40.2725 100.061 40.2725 99.188V90.311H41.749V102.915ZM45.5986 91.6294C45.3408 91.6294 45.1211 91.5415 44.9395 91.3657C44.7578 91.1899 44.667 90.9673 44.667 90.6978C44.667 90.4282 44.7578 90.2056 44.9395 90.0298C45.1211 89.8481 45.3408 89.7573 45.5986 89.7573C45.8623 89.7573 46.085 89.8481 46.2666 90.0298C46.4541 90.2056 46.5479 90.4282 46.5479 90.6978C46.5479 90.9556 46.4541 91.1753 46.2666 91.3569C46.085 91.5386 45.8623 91.6294 45.5986 91.6294ZM46.3018 102.915H44.8604V93.9146H46.3018V102.915ZM56.6904 102.915H54.6689L50.6963 98.5903H50.6611V102.915H49.2197V89.5903H50.6611V98.0366H50.6963L54.4756 93.9146H56.3652L52.1904 98.2563L56.6904 102.915ZM58.9053 91.6294C58.6475 91.6294 58.4277 91.5415 58.2461 91.3657C58.0645 91.1899 57.9736 90.9673 57.9736 90.6978C57.9736 90.4282 58.0645 90.2056 58.2461 90.0298C58.4277 89.8481 58.6475 89.7573 58.9053 89.7573C59.1689 89.7573 59.3916 89.8481 59.5732 90.0298C59.7607 90.2056 59.8545 90.4282 59.8545 90.6978C59.8545 90.9556 59.7607 91.1753 59.5732 91.3569C59.3916 91.5386 59.1689 91.6294 58.9053 91.6294ZM59.6084 102.915H58.167V93.9146H59.6084V102.915ZM66.7012 102.827C66.3613 103.014 65.9131 103.108 65.3564 103.108C63.7803 103.108 62.9922 102.229 62.9922 100.471V95.145H61.4453V93.9146H62.9922V91.7173L64.4336 91.2515V93.9146H66.7012V95.145H64.4336V100.216C64.4336 100.82 64.5361 101.25 64.7412 101.508C64.9463 101.766 65.2861 101.895 65.7607 101.895C66.124 101.895 66.4375 101.795 66.7012 101.596V102.827ZM75.0684 102.915H73.627V101.508H73.5918C72.9648 102.586 72.042 103.125 70.8232 103.125C69.9268 103.125 69.2236 102.888 68.7139 102.414C68.21 101.939 67.958 101.309 67.958 100.524C67.958 98.8423 68.9482 97.8638 70.9287 97.5884L73.627 97.2104C73.627 95.6812 73.0088 94.9165 71.7725 94.9165C70.6885 94.9165 69.71 95.2856 68.8369 96.0239V94.5474C69.7217 93.9849 70.7412 93.7036 71.8955 93.7036C74.0107 93.7036 75.0684 94.8228 75.0684 97.061V102.915ZM73.627 98.3618L71.4561 98.6606C70.7881 98.7544 70.2842 98.9214 69.9443 99.1616C69.6045 99.396 69.4346 99.8149 69.4346 100.418C69.4346 100.858 69.5898 101.218 69.9004 101.5C70.2168 101.775 70.6357 101.913 71.1572 101.913C71.8721 101.913 72.4609 101.664 72.9238 101.166C73.3926 100.662 73.627 100.026 73.627 99.2583V98.3618ZM83.7959 105.525H76.3252V104.479H83.7959V105.525ZM91.9873 102.915H85.4482V90.311H86.9248V101.579H91.9873V102.915ZM97.4893 103.125C96.1592 103.125 95.0957 102.707 94.2988 101.869C93.5078 101.025 93.1123 99.9087 93.1123 98.52C93.1123 97.0083 93.5254 95.8276 94.3516 94.978C95.1777 94.1284 96.2939 93.7036 97.7002 93.7036C99.042 93.7036 100.088 94.1167 100.838 94.9429C101.594 95.769 101.972 96.9146 101.972 98.3794C101.972 99.8149 101.564 100.966 100.75 101.833C99.9414 102.695 98.8545 103.125 97.4893 103.125ZM97.5947 94.9165C96.6689 94.9165 95.9365 95.2329 95.3975 95.8657C94.8584 96.4927 94.5889 97.3599 94.5889 98.4673C94.5889 99.5337 94.8613 100.375 95.4062 100.99C95.9512 101.605 96.6807 101.913 97.5947 101.913C98.5264 101.913 99.2412 101.611 99.7393 101.007C100.243 100.404 100.495 99.5454 100.495 98.4321C100.495 97.3071 100.243 96.4399 99.7393 95.8306C99.2412 95.2212 98.5264 94.9165 97.5947 94.9165ZM105.716 102.915H104.274V89.5903H105.716V102.915ZM109.987 107.151H108.687V89.1509H109.987V107.151Z" fill="#23292E"/>
<rect y="145.471" width="548.827" height="91.4712" rx="8" fill="#FAFAFA"/>
<path d="M31.0107 192.855H28.0752V198.744H26.5986V186.141H28.0752V191.528H31.0635C31.2393 189.771 31.8398 188.399 32.8652 187.415C33.8906 186.425 35.2236 185.93 36.8643 185.93C38.5576 185.93 39.9082 186.51 40.916 187.67C41.9297 188.824 42.4365 190.362 42.4365 192.284C42.4365 194.364 41.918 195.996 40.8809 197.18C39.8438 198.363 38.4316 198.955 36.6445 198.955C34.9688 198.955 33.6211 198.398 32.6016 197.285C31.5879 196.172 31.0576 194.695 31.0107 192.855ZM36.8115 187.266C35.4814 187.266 34.4385 187.723 33.6826 188.637C32.9326 189.551 32.5576 190.808 32.5576 192.407C32.5576 194.065 32.915 195.352 33.6299 196.266C34.3447 197.174 35.3496 197.628 36.6445 197.628C37.9922 197.628 39.0352 197.18 39.7734 196.283C40.5176 195.387 40.8896 194.121 40.8896 192.486C40.8896 190.799 40.5322 189.507 39.8174 188.61C39.1084 187.714 38.1064 187.266 36.8115 187.266ZM50.874 198.331C50.1826 198.747 49.3623 198.955 48.4131 198.955C47.1299 198.955 46.0928 198.539 45.3018 197.707C44.5166 196.869 44.124 195.785 44.124 194.455C44.124 192.973 44.5488 191.783 45.3984 190.887C46.248 189.984 47.3818 189.533 48.7998 189.533C49.5908 189.533 50.2881 189.68 50.8916 189.973V191.449C50.2236 190.98 49.5088 190.746 48.7471 190.746C47.8271 190.746 47.0713 191.077 46.4795 191.739C45.8936 192.396 45.6006 193.26 45.6006 194.332C45.6006 195.387 45.876 196.219 46.4268 196.828C46.9834 197.438 47.7275 197.742 48.6592 197.742C49.4443 197.742 50.1826 197.481 50.874 196.96V198.331ZM58.7051 190.975H56.0068V198.744H54.5654V190.975H51.8584V189.744H58.7051V190.975ZM67.5996 189.744L63.46 200.186C62.7217 202.049 61.6846 202.98 60.3486 202.98C59.9736 202.98 59.6602 202.942 59.4082 202.866V201.574C59.7188 201.68 60.0029 201.732 60.2607 201.732C60.9873 201.732 61.5322 201.299 61.8955 200.432L62.6162 198.727L59.1006 189.744H60.7002L63.1348 196.67C63.1641 196.758 63.2256 196.986 63.3193 197.355H63.3721C63.4014 197.215 63.46 196.992 63.5479 196.688L66.1055 189.744H67.5996ZM75.29 198.331C74.5986 198.747 73.7783 198.955 72.8291 198.955C71.5459 198.955 70.5088 198.539 69.7178 197.707C68.9326 196.869 68.54 195.785 68.54 194.455C68.54 192.973 68.9648 191.783 69.8145 190.887C70.6641 189.984 71.7979 189.533 73.2158 189.533C74.0068 189.533 74.7041 189.68 75.3076 189.973V191.449C74.6396 190.98 73.9248 190.746 73.1631 190.746C72.2432 190.746 71.4873 191.077 70.8955 191.739C70.3096 192.396 70.0166 193.26 70.0166 194.332C70.0166 195.387 70.292 196.219 70.8428 196.828C71.3994 197.438 72.1436 197.742 73.0752 197.742C73.8604 197.742 74.5986 197.481 75.29 196.96V198.331ZM92.0771 198.744H90.6006V192.996H84.0791V198.744H82.6025V186.141H84.0791V191.669H90.6006V186.141H92.0771V198.744ZM102.729 198.744H101.429V191.563C101.3 191.815 101.104 192.17 100.84 192.627L96.6826 198.744H95.1885V189.744H96.5068V196.837C96.5771 196.667 96.7295 196.377 96.9639 195.967L101.235 189.744H102.729V198.744ZM113.118 198.744H111.097L107.124 194.42H107.089V198.744H105.647V189.744H107.089V193.866H107.124L110.903 189.744H112.793L108.618 194.086L113.118 198.744ZM122.136 198.744H120.835V191.563C120.706 191.815 120.51 192.17 120.246 192.627L116.089 198.744H114.595V189.744H115.913V196.837C115.983 196.667 116.136 196.377 116.37 195.967L120.642 189.744H122.136V198.744ZM130.705 190.975H128.007V198.744H126.565V190.975H123.858V189.744H130.705V190.975ZM138.879 198.744H137.438V197.338H137.402C136.775 198.416 135.853 198.955 134.634 198.955C133.737 198.955 133.034 198.718 132.524 198.243C132.021 197.769 131.769 197.139 131.769 196.354C131.769 194.672 132.759 193.693 134.739 193.418L137.438 193.04C137.438 191.511 136.819 190.746 135.583 190.746C134.499 190.746 133.521 191.115 132.647 191.854V190.377C133.532 189.814 134.552 189.533 135.706 189.533C137.821 189.533 138.879 190.652 138.879 192.891V198.744ZM137.438 194.191L135.267 194.49C134.599 194.584 134.095 194.751 133.755 194.991C133.415 195.226 133.245 195.645 133.245 196.248C133.245 196.688 133.4 197.048 133.711 197.329C134.027 197.604 134.446 197.742 134.968 197.742C135.683 197.742 136.271 197.493 136.734 196.995C137.203 196.491 137.438 195.855 137.438 195.088V194.191Z" fill="#8C888A"/>
<rect y="244.942" width="548.827" height="91.4712" rx="8" fill="#FAFAFA"/>
<path d="M35.2471 293.557H31.6963V297.099H30.5273V293.557H26.9854V292.379H30.5273V288.837H31.6963V292.379H35.2471V293.557ZM46.1455 286.447C45.9521 286.781 45.7178 287.197 45.4424 287.695C45.1729 288.193 44.8857 288.752 44.5811 289.374C44.2764 289.995 43.9658 290.663 43.6494 291.377C43.333 292.092 43.0371 292.831 42.7617 293.592C42.4863 294.354 42.2432 295.127 42.0322 295.913C41.8271 296.692 41.6777 297.459 41.584 298.215H40.0371C40.1426 297.465 40.3037 296.701 40.5205 295.921C40.7432 295.136 40.9922 294.369 41.2676 293.619C41.5488 292.863 41.8447 292.136 42.1553 291.439C42.4658 290.742 42.7676 290.1 43.0605 289.514C43.3535 288.928 43.6201 288.413 43.8604 287.967C44.1064 287.516 44.3027 287.165 44.4492 286.913H38.1299V285.612H46.1455V286.447ZM55.7959 291.158C55.7959 292.312 55.6816 293.34 55.4531 294.243C55.2246 295.139 54.8906 295.901 54.4512 296.528C54.0117 297.149 53.4756 297.624 52.8428 297.952C52.21 298.274 51.4893 298.435 50.6807 298.435C49.8486 298.435 49.1162 298.289 48.4834 297.996V296.616C49.1807 297.008 49.9248 297.205 50.7158 297.205C51.2842 297.205 51.791 297.087 52.2363 296.853C52.6875 296.619 53.0684 296.279 53.3789 295.833C53.6895 295.382 53.9268 294.829 54.0908 294.172C54.2549 293.516 54.3369 292.763 54.3369 291.914H54.3018C53.7627 292.998 52.8252 293.54 51.4893 293.54C50.9502 293.54 50.4551 293.446 50.0039 293.258C49.5527 293.065 49.1631 292.795 48.835 292.45C48.5068 292.098 48.252 291.682 48.0703 291.202C47.8887 290.721 47.7979 290.191 47.7979 289.611C47.7979 288.99 47.8975 288.421 48.0967 287.906C48.3018 287.39 48.583 286.948 48.9404 286.579C49.3037 286.204 49.7314 285.914 50.2236 285.708C50.7217 285.503 51.2637 285.401 51.8496 285.401C52.4824 285.401 53.042 285.53 53.5283 285.788C54.0205 286.04 54.4336 286.412 54.7676 286.904C55.1016 287.39 55.3564 287.991 55.5322 288.706C55.708 289.42 55.7959 290.238 55.7959 291.158ZM54.2402 289.866C54.2402 289.379 54.1758 288.937 54.0469 288.539C53.9238 288.14 53.751 287.8 53.5283 287.519C53.3057 287.232 53.0391 287.012 52.7285 286.86C52.4238 286.702 52.0898 286.623 51.7266 286.623C51.3809 286.623 51.0586 286.693 50.7598 286.833C50.4609 286.968 50.2002 287.162 49.9775 287.414C49.7607 287.66 49.5879 287.956 49.459 288.301C49.3359 288.641 49.2744 289.013 49.2744 289.417C49.2744 289.863 49.333 290.261 49.4502 290.613C49.5732 290.964 49.7461 291.263 49.9688 291.509C50.1914 291.75 50.458 291.934 50.7686 292.063C51.085 292.192 51.4336 292.256 51.8145 292.256C52.1484 292.256 52.4619 292.195 52.7549 292.072C53.0537 291.943 53.3115 291.773 53.5283 291.562C53.751 291.345 53.9238 291.093 54.0469 290.806C54.1758 290.513 54.2402 290.2 54.2402 289.866ZM65.499 291.158C65.499 292.312 65.3848 293.34 65.1562 294.243C64.9277 295.139 64.5938 295.901 64.1543 296.528C63.7148 297.149 63.1787 297.624 62.5459 297.952C61.9131 298.274 61.1924 298.435 60.3838 298.435C59.5518 298.435 58.8193 298.289 58.1865 297.996V296.616C58.8838 297.008 59.6279 297.205 60.4189 297.205C60.9873 297.205 61.4941 297.087 61.9395 296.853C62.3906 296.619 62.7715 296.279 63.082 295.833C63.3926 295.382 63.6299 294.829 63.7939 294.172C63.958 293.516 64.04 292.763 64.04 291.914H64.0049C63.4658 292.998 62.5283 293.54 61.1924 293.54C60.6533 293.54 60.1582 293.446 59.707 293.258C59.2559 293.065 58.8662 292.795 58.5381 292.45C58.21 292.098 57.9551 291.682 57.7734 291.202C57.5918 290.721 57.501 290.191 57.501 289.611C57.501 288.99 57.6006 288.421 57.7998 287.906C58.0049 287.39 58.2861 286.948 58.6436 286.579C59.0068 286.204 59.4346 285.914 59.9268 285.708C60.4248 285.503 60.9668 285.401 61.5527 285.401C62.1855 285.401 62.7451 285.53 63.2314 285.788C63.7236 286.04 64.1367 286.412 64.4707 286.904C64.8047 287.39 65.0596 287.991 65.2354 288.706C65.4111 289.42 65.499 290.238 65.499 291.158ZM63.9434 289.866C63.9434 289.379 63.8789 288.937 63.75 288.539C63.627 288.14 63.4541 287.8 63.2314 287.519C63.0088 287.232 62.7422 287.012 62.4316 286.86C62.127 286.702 61.793 286.623 61.4297 286.623C61.084 286.623 60.7617 286.693 60.4629 286.833C60.1641 286.968 59.9033 287.162 59.6807 287.414C59.4639 287.66 59.291 287.956 59.1621 288.301C59.0391 288.641 58.9775 289.013 58.9775 289.417C58.9775 289.863 59.0361 290.261 59.1533 290.613C59.2764 290.964 59.4492 291.263 59.6719 291.509C59.8945 291.75 60.1611 291.934 60.4717 292.063C60.7881 292.192 61.1367 292.256 61.5176 292.256C61.8516 292.256 62.165 292.195 62.458 292.072C62.7568 291.943 63.0146 291.773 63.2314 291.562C63.4541 291.345 63.627 291.093 63.75 290.806C63.8789 290.513 63.9434 290.2 63.9434 289.866ZM72.7412 298.215H71.2998V287.326C71.1885 287.437 71.0244 287.566 70.8076 287.712C70.5967 287.853 70.3564 287.994 70.0869 288.134C69.8232 288.275 69.542 288.407 69.2432 288.53C68.9502 288.653 68.6631 288.75 68.3818 288.82V287.361C68.6982 287.273 69.0322 287.156 69.3838 287.009C69.7412 286.857 70.0898 286.69 70.4297 286.508C70.7754 286.321 71.1006 286.127 71.4053 285.928C71.71 285.723 71.9736 285.524 72.1963 285.331H72.7412V298.215ZM82.8662 288.917C82.8662 288.53 82.8047 288.193 82.6816 287.906C82.5645 287.619 82.4004 287.381 82.1895 287.194C81.9844 287 81.7412 286.857 81.46 286.763C81.1787 286.669 80.874 286.623 80.5459 286.623C80.2646 286.623 79.9893 286.661 79.7197 286.737C79.4502 286.813 79.1865 286.918 78.9287 287.053C78.6768 287.188 78.4307 287.349 78.1904 287.537C77.9561 287.724 77.7363 287.932 77.5312 288.161V286.614C77.9355 286.221 78.3867 285.922 78.8848 285.717C79.3887 285.506 80.001 285.401 80.7217 285.401C81.2373 285.401 81.7148 285.477 82.1543 285.629C82.5938 285.776 82.9746 285.993 83.2969 286.28C83.6191 286.567 83.8711 286.921 84.0527 287.343C84.2402 287.765 84.334 288.249 84.334 288.793C84.334 289.292 84.2754 289.743 84.1582 290.147C84.0469 290.551 83.874 290.932 83.6396 291.29C83.4111 291.647 83.1211 291.99 82.7695 292.318C82.418 292.646 82.0049 292.98 81.5303 293.32C80.9385 293.742 80.4492 294.102 80.0625 294.401C79.6816 294.7 79.377 294.981 79.1484 295.245C78.9258 295.502 78.7676 295.763 78.6738 296.027C78.5859 296.285 78.542 296.583 78.542 296.923H84.8174V298.215H77.0391V297.591C77.0391 297.052 77.0977 296.578 77.2148 296.167C77.332 295.757 77.5254 295.368 77.7949 294.999C78.0645 294.629 78.416 294.26 78.8496 293.891C79.2891 293.522 79.8252 293.106 80.458 292.643C80.915 292.315 81.2959 292.001 81.6006 291.703C81.9111 291.404 82.1602 291.105 82.3477 290.806C82.5352 290.507 82.667 290.206 82.7432 289.901C82.8252 289.59 82.8662 289.262 82.8662 288.917ZM94.1602 294.647C94.1602 295.215 94.0518 295.734 93.835 296.203C93.624 296.666 93.3223 297.064 92.9297 297.398C92.543 297.726 92.0771 297.981 91.5322 298.163C90.9873 298.344 90.3867 298.435 89.7305 298.435C88.5293 298.435 87.5742 298.207 86.8652 297.75V296.203C87.7148 296.871 88.6875 297.205 89.7832 297.205C90.2227 297.205 90.6182 297.149 90.9697 297.038C91.3271 296.926 91.6318 296.765 91.8838 296.554C92.1416 296.343 92.3379 296.088 92.4727 295.79C92.6133 295.491 92.6836 295.154 92.6836 294.779C92.6836 293.132 91.5117 292.309 89.168 292.309H88.1221V291.087H89.1152C91.1895 291.087 92.2266 290.314 92.2266 288.767C92.2266 287.337 91.4355 286.623 89.8535 286.623C88.9629 286.623 88.1279 286.921 87.3486 287.519V286.122C88.1514 285.641 89.1064 285.401 90.2139 285.401C90.7412 285.401 91.2188 285.474 91.6465 285.621C92.0742 285.767 92.4404 285.972 92.7451 286.236C93.0498 286.5 93.2842 286.816 93.4482 287.185C93.6182 287.554 93.7031 287.961 93.7031 288.407C93.7031 290.065 92.8652 291.131 91.1895 291.606V291.641C91.6172 291.688 92.0127 291.793 92.376 291.958C92.7393 292.116 93.0527 292.324 93.3164 292.582C93.5801 292.839 93.7852 293.144 93.9316 293.496C94.084 293.841 94.1602 294.225 94.1602 294.647ZM102.958 285.612V293.935H104.575V295.253H102.958V298.215H101.534V295.253H95.6104V294.005C96.1611 293.384 96.7178 292.722 97.2803 292.019C97.8428 291.31 98.3789 290.592 98.8887 289.866C99.4043 289.139 99.8789 288.416 100.312 287.695C100.752 286.968 101.121 286.274 101.42 285.612H102.958ZM97.2363 293.935H101.534V287.765C101.095 288.533 100.679 289.218 100.286 289.822C99.8936 290.425 99.5186 290.973 99.1611 291.465C98.8096 291.958 98.4727 292.403 98.1504 292.801C97.8281 293.2 97.5234 293.578 97.2363 293.935ZM113.707 294.366C113.707 294.981 113.602 295.538 113.391 296.036C113.18 296.534 112.878 296.961 112.485 297.319C112.099 297.676 111.63 297.952 111.079 298.145C110.528 298.338 109.916 298.435 109.242 298.435C108.07 298.435 107.2 298.259 106.632 297.908V296.378C107.487 296.929 108.363 297.205 109.26 297.205C109.717 297.205 110.127 297.137 110.49 297.002C110.859 296.868 111.173 296.68 111.431 296.44C111.688 296.2 111.885 295.91 112.02 295.57C112.16 295.23 112.23 294.858 112.23 294.454C112.23 293.633 111.955 292.992 111.404 292.529C110.854 292.06 110.054 291.826 109.005 291.826C108.835 291.826 108.656 291.829 108.469 291.834C108.281 291.84 108.094 291.849 107.906 291.861C107.719 291.867 107.534 291.875 107.353 291.887C107.177 291.899 107.016 291.914 106.869 291.931L107.3 285.612H113.127V286.913H108.548L108.293 290.613C108.48 290.601 108.68 290.592 108.891 290.586C109.102 290.575 109.289 290.569 109.453 290.569C110.121 290.569 110.719 290.657 111.246 290.833C111.773 291.008 112.219 291.26 112.582 291.588C112.951 291.911 113.229 292.309 113.417 292.784C113.61 293.252 113.707 293.78 113.707 294.366ZM123.876 294.216C123.876 294.832 123.776 295.397 123.577 295.913C123.378 296.428 123.103 296.874 122.751 297.249C122.399 297.624 121.98 297.917 121.494 298.127C121.008 298.333 120.48 298.435 119.912 298.435C119.279 298.435 118.711 298.303 118.207 298.04C117.709 297.776 117.284 297.398 116.933 296.906C116.587 296.408 116.323 295.801 116.142 295.086C115.96 294.372 115.869 293.566 115.869 292.669C115.869 291.574 115.989 290.581 116.229 289.69C116.476 288.793 116.821 288.029 117.267 287.396C117.718 286.757 118.26 286.265 118.893 285.919C119.525 285.574 120.231 285.401 121.011 285.401C121.878 285.401 122.575 285.521 123.103 285.761V287.124C122.452 286.79 121.767 286.623 121.046 286.623C120.483 286.623 119.977 286.749 119.525 287C119.074 287.252 118.688 287.61 118.365 288.073C118.043 288.53 117.794 289.083 117.618 289.734C117.448 290.384 117.363 291.108 117.363 291.905H117.398C117.979 290.856 118.937 290.332 120.272 290.332C120.823 290.332 121.318 290.425 121.758 290.613C122.203 290.8 122.581 291.067 122.892 291.413C123.208 291.752 123.451 292.16 123.621 292.634C123.791 293.109 123.876 293.636 123.876 294.216ZM122.399 294.401C122.399 293.961 122.344 293.566 122.232 293.214C122.121 292.863 121.96 292.564 121.749 292.318C121.544 292.072 121.289 291.884 120.984 291.755C120.68 291.621 120.334 291.553 119.947 291.553C119.59 291.553 119.259 291.621 118.954 291.755C118.649 291.89 118.386 292.075 118.163 292.309C117.94 292.538 117.765 292.807 117.636 293.118C117.513 293.422 117.451 293.748 117.451 294.093C117.451 294.527 117.513 294.934 117.636 295.315C117.759 295.69 117.932 296.018 118.154 296.299C118.377 296.581 118.641 296.803 118.945 296.967C119.256 297.125 119.599 297.205 119.974 297.205C120.337 297.205 120.668 297.137 120.967 297.002C121.266 296.862 121.521 296.668 121.731 296.422C121.942 296.176 122.106 295.883 122.224 295.543C122.341 295.198 122.399 294.817 122.399 294.401ZM133.474 286.447C133.28 286.781 133.046 287.197 132.771 287.695C132.501 288.193 132.214 288.752 131.909 289.374C131.604 289.995 131.294 290.663 130.978 291.377C130.661 292.092 130.365 292.831 130.09 293.592C129.814 294.354 129.571 295.127 129.36 295.913C129.155 296.692 129.006 297.459 128.912 298.215H127.365C127.471 297.465 127.632 296.701 127.849 295.921C128.071 295.136 128.32 294.369 128.596 293.619C128.877 292.863 129.173 292.136 129.483 291.439C129.794 290.742 130.096 290.1 130.389 289.514C130.682 288.928 130.948 288.413 131.188 287.967C131.435 287.516 131.631 287.165 131.777 286.913H125.458V285.612H133.474V286.447ZM135.091 294.7C135.091 294.366 135.144 294.032 135.249 293.698C135.354 293.358 135.504 293.042 135.697 292.749C135.896 292.456 136.14 292.189 136.427 291.949C136.72 291.708 137.051 291.518 137.42 291.377C136.875 291.073 136.441 290.683 136.119 290.208C135.797 289.728 135.636 289.198 135.636 288.618C135.636 288.155 135.724 287.727 135.899 287.334C136.081 286.942 136.33 286.602 136.646 286.315C136.963 286.028 137.338 285.805 137.771 285.647C138.205 285.483 138.674 285.401 139.178 285.401C139.688 285.401 140.159 285.483 140.593 285.647C141.026 285.811 141.401 286.037 141.718 286.324C142.034 286.611 142.28 286.951 142.456 287.343C142.632 287.736 142.72 288.161 142.72 288.618C142.72 289.198 142.559 289.728 142.236 290.208C141.914 290.683 141.486 291.073 140.953 291.377C141.316 291.518 141.642 291.708 141.929 291.949C142.216 292.189 142.456 292.456 142.649 292.749C142.849 293.042 143.001 293.358 143.106 293.698C143.212 294.032 143.265 294.366 143.265 294.7C143.265 295.25 143.165 295.754 142.966 296.211C142.767 296.668 142.485 297.061 142.122 297.389C141.765 297.711 141.334 297.963 140.83 298.145C140.332 298.327 139.781 298.417 139.178 298.417C138.58 298.417 138.032 298.327 137.534 298.145C137.036 297.963 136.605 297.711 136.242 297.389C135.879 297.061 135.595 296.668 135.39 296.211C135.19 295.754 135.091 295.25 135.091 294.7ZM136.655 294.577C136.655 294.969 136.714 295.324 136.831 295.64C136.954 295.957 137.124 296.226 137.341 296.449C137.563 296.671 137.83 296.844 138.141 296.967C138.457 297.084 138.806 297.143 139.187 297.143C139.556 297.143 139.896 297.082 140.206 296.958C140.517 296.835 140.783 296.663 141.006 296.44C141.234 296.217 141.41 295.948 141.533 295.631C141.662 295.315 141.727 294.963 141.727 294.577C141.727 294.225 141.665 293.897 141.542 293.592C141.425 293.282 141.255 293.009 141.032 292.775C140.81 292.541 140.543 292.356 140.232 292.221C139.922 292.086 139.573 292.019 139.187 292.019C138.823 292.019 138.486 292.083 138.176 292.212C137.871 292.335 137.604 292.511 137.376 292.74C137.153 292.962 136.978 293.232 136.849 293.548C136.72 293.859 136.655 294.202 136.655 294.577ZM137.104 288.732C137.104 289.031 137.156 289.309 137.262 289.567C137.373 289.819 137.522 290.042 137.71 290.235C137.903 290.422 138.126 290.572 138.378 290.683C138.63 290.789 138.899 290.841 139.187 290.841C139.474 290.841 139.743 290.786 139.995 290.674C140.253 290.563 140.476 290.414 140.663 290.226C140.851 290.033 141 289.81 141.111 289.558C141.223 289.3 141.278 289.025 141.278 288.732C141.278 288.427 141.223 288.146 141.111 287.888C141.006 287.63 140.859 287.408 140.672 287.22C140.484 287.033 140.262 286.886 140.004 286.781C139.752 286.669 139.479 286.614 139.187 286.614C138.876 286.614 138.592 286.669 138.334 286.781C138.082 286.892 137.862 287.044 137.675 287.238C137.493 287.425 137.353 287.648 137.253 287.906C137.153 288.164 137.104 288.439 137.104 288.732Z" fill="#8C888A"/>
<rect y="344.414" width="548.827" height="91.4712" rx="8" fill="#FAFAFA"/>
<path d="M25.8604 397.361V395.815C26.6455 396.395 27.5098 396.685 28.4531 396.685C29.7188 396.685 30.3516 396.263 30.3516 395.419C30.3516 395.179 30.2959 394.977 30.1846 394.813C30.0791 394.643 29.9326 394.493 29.7451 394.364C29.5635 394.235 29.3467 394.121 29.0947 394.022C28.8486 393.916 28.582 393.808 28.2949 393.696C27.8965 393.538 27.5449 393.38 27.2402 393.222C26.9414 393.058 26.6895 392.876 26.4844 392.677C26.2852 392.472 26.1328 392.24 26.0273 391.982C25.9277 391.725 25.8779 391.423 25.8779 391.077C25.8779 390.655 25.9746 390.283 26.168 389.961C26.3613 389.633 26.6191 389.36 26.9414 389.144C27.2637 388.921 27.6299 388.754 28.04 388.643C28.4561 388.531 28.8838 388.476 29.3232 388.476C30.1025 388.476 30.7998 388.61 31.415 388.88V390.339C30.7529 389.905 29.9912 389.689 29.1299 389.689C28.8604 389.689 28.6172 389.721 28.4004 389.785C28.1836 389.844 27.9961 389.929 27.8379 390.04C27.6855 390.151 27.5654 390.286 27.4775 390.444C27.3955 390.597 27.3545 390.767 27.3545 390.954C27.3545 391.189 27.3955 391.385 27.4775 391.543C27.5654 391.701 27.6914 391.842 27.8555 391.965C28.0195 392.088 28.2188 392.199 28.4531 392.299C28.6875 392.398 28.9541 392.507 29.2529 392.624C29.6514 392.776 30.0088 392.935 30.3252 393.099C30.6416 393.257 30.9111 393.439 31.1338 393.644C31.3564 393.843 31.5264 394.074 31.6436 394.338C31.7666 394.602 31.8281 394.915 31.8281 395.278C31.8281 395.724 31.7285 396.11 31.5293 396.439C31.3359 396.767 31.0752 397.039 30.7471 397.256C30.4189 397.473 30.041 397.634 29.6133 397.739C29.1855 397.845 28.7373 397.898 28.2686 397.898C27.3428 397.898 26.54 397.719 25.8604 397.361ZM37.8135 397.898C36.4834 397.898 35.4199 397.479 34.623 396.641C33.832 395.797 33.4365 394.681 33.4365 393.292C33.4365 391.78 33.8496 390.6 34.6758 389.75C35.502 388.9 36.6182 388.476 38.0244 388.476C39.3662 388.476 40.4121 388.889 41.1621 389.715C41.918 390.541 42.2959 391.687 42.2959 393.151C42.2959 394.587 41.8887 395.738 41.0742 396.606C40.2656 397.467 39.1787 397.898 37.8135 397.898ZM37.9189 389.689C36.9932 389.689 36.2607 390.005 35.7217 390.638C35.1826 391.265 34.9131 392.132 34.9131 393.239C34.9131 394.306 35.1855 395.147 35.7305 395.762C36.2754 396.377 37.0049 396.685 37.9189 396.685C38.8506 396.685 39.5654 396.383 40.0635 395.779C40.5674 395.176 40.8193 394.317 40.8193 393.204C40.8193 392.079 40.5674 391.212 40.0635 390.603C39.5654 389.993 38.8506 389.689 37.9189 389.689ZM52.0693 397.687H50.0479L46.0752 393.362H46.04V397.687H44.5986V384.362H46.04V392.809H46.0752L49.8545 388.687H51.7441L47.5693 393.028L52.0693 397.687ZM57.3076 397.898C55.9775 397.898 54.9141 397.479 54.1172 396.641C53.3262 395.797 52.9307 394.681 52.9307 393.292C52.9307 391.78 53.3438 390.6 54.1699 389.75C54.9961 388.9 56.1123 388.476 57.5186 388.476C58.8604 388.476 59.9062 388.889 60.6562 389.715C61.4121 390.541 61.79 391.687 61.79 393.151C61.79 394.587 61.3828 395.738 60.5684 396.606C59.7598 397.467 58.6729 397.898 57.3076 397.898ZM57.4131 389.689C56.4873 389.689 55.7549 390.005 55.2158 390.638C54.6768 391.265 54.4072 392.132 54.4072 393.239C54.4072 394.306 54.6797 395.147 55.2246 395.762C55.7695 396.377 56.499 396.685 57.4131 396.685C58.3447 396.685 59.0596 396.383 59.5576 395.779C60.0615 395.176 60.3135 394.317 60.3135 393.204C60.3135 392.079 60.0615 391.212 59.5576 390.603C59.0596 389.993 58.3447 389.689 57.4131 389.689ZM65.5342 397.687H64.0928V384.362H65.5342V397.687ZM72.2139 397.898C70.8838 397.898 69.8203 397.479 69.0234 396.641C68.2324 395.797 67.8369 394.681 67.8369 393.292C67.8369 391.78 68.25 390.6 69.0762 389.75C69.9023 388.9 71.0186 388.476 72.4248 388.476C73.7666 388.476 74.8125 388.889 75.5625 389.715C76.3184 390.541 76.6963 391.687 76.6963 393.151C76.6963 394.587 76.2891 395.738 75.4746 396.606C74.666 397.467 73.5791 397.898 72.2139 397.898ZM72.3193 389.689C71.3936 389.689 70.6611 390.005 70.1221 390.638C69.583 391.265 69.3135 392.132 69.3135 393.239C69.3135 394.306 69.5859 395.147 70.1309 395.762C70.6758 396.377 71.4053 396.685 72.3193 396.685C73.251 396.685 73.9658 396.383 74.4639 395.779C74.9678 395.176 75.2197 394.317 75.2197 393.204C75.2197 392.079 74.9678 391.212 74.4639 390.603C73.9658 389.993 73.251 389.689 72.3193 389.689ZM86.0742 388.687L82.4883 397.687H81.0732L77.6631 388.687H79.2451L81.5303 395.226C81.7002 395.706 81.8057 396.125 81.8467 396.482H81.8818C81.9404 396.031 82.0342 395.624 82.1631 395.261L84.5537 388.687H86.0742ZM94.0723 397.687H92.6309V396.28H92.5957C91.9688 397.358 91.0459 397.898 89.8271 397.898C88.9307 397.898 88.2275 397.66 87.7178 397.186C87.2139 396.711 86.9619 396.081 86.9619 395.296C86.9619 393.614 87.9521 392.636 89.9326 392.36L92.6309 391.982C92.6309 390.453 92.0127 389.689 90.7764 389.689C89.6924 389.689 88.7139 390.058 87.8408 390.796V389.319C88.7256 388.757 89.7451 388.476 90.8994 388.476C93.0146 388.476 94.0723 389.595 94.0723 391.833V397.687ZM92.6309 393.134L90.46 393.433C89.792 393.526 89.2881 393.693 88.9482 393.934C88.6084 394.168 88.4385 394.587 88.4385 395.19C88.4385 395.63 88.5938 395.99 88.9043 396.272C89.2207 396.547 89.6396 396.685 90.1611 396.685C90.876 396.685 91.4648 396.436 91.9277 395.938C92.3965 395.434 92.6309 394.798 92.6309 394.03V393.134ZM97.2891 397.88C97.0195 397.88 96.7881 397.783 96.5947 397.59C96.4072 397.397 96.3135 397.165 96.3135 396.896C96.3135 396.626 96.4072 396.395 96.5947 396.201C96.7881 396.002 97.0195 395.902 97.2891 395.902C97.5645 395.902 97.7988 396.002 97.9922 396.201C98.1855 396.395 98.2822 396.626 98.2822 396.896C98.2822 397.165 98.1855 397.397 97.9922 397.59C97.7988 397.783 97.5645 397.88 97.2891 397.88ZM100.146 397.361V395.815C100.931 396.395 101.795 396.685 102.738 396.685C104.004 396.685 104.637 396.263 104.637 395.419C104.637 395.179 104.581 394.977 104.47 394.813C104.364 394.643 104.218 394.493 104.03 394.364C103.849 394.235 103.632 394.121 103.38 394.022C103.134 393.916 102.867 393.808 102.58 393.696C102.182 393.538 101.83 393.38 101.525 393.222C101.227 393.058 100.975 392.876 100.77 392.677C100.57 392.472 100.418 392.24 100.312 391.982C100.213 391.725 100.163 391.423 100.163 391.077C100.163 390.655 100.26 390.283 100.453 389.961C100.646 389.633 100.904 389.36 101.227 389.144C101.549 388.921 101.915 388.754 102.325 388.643C102.741 388.531 103.169 388.476 103.608 388.476C104.388 388.476 105.085 388.61 105.7 388.88V390.339C105.038 389.905 104.276 389.689 103.415 389.689C103.146 389.689 102.902 389.721 102.686 389.785C102.469 389.844 102.281 389.929 102.123 390.04C101.971 390.151 101.851 390.286 101.763 390.444C101.681 390.597 101.64 390.767 101.64 390.954C101.64 391.189 101.681 391.385 101.763 391.543C101.851 391.701 101.977 391.842 102.141 391.965C102.305 392.088 102.504 392.199 102.738 392.299C102.973 392.398 103.239 392.507 103.538 392.624C103.937 392.776 104.294 392.935 104.61 393.099C104.927 393.257 105.196 393.439 105.419 393.644C105.642 393.843 105.812 394.074 105.929 394.338C106.052 394.602 106.113 394.915 106.113 395.278C106.113 395.724 106.014 396.11 105.814 396.439C105.621 396.767 105.36 397.039 105.032 397.256C104.704 397.473 104.326 397.634 103.898 397.739C103.471 397.845 103.022 397.898 102.554 397.898C101.628 397.898 100.825 397.719 100.146 397.361ZM112.099 397.898C110.769 397.898 109.705 397.479 108.908 396.641C108.117 395.797 107.722 394.681 107.722 393.292C107.722 391.78 108.135 390.6 108.961 389.75C109.787 388.9 110.903 388.476 112.31 388.476C113.651 388.476 114.697 388.889 115.447 389.715C116.203 390.541 116.581 391.687 116.581 393.151C116.581 394.587 116.174 395.738 115.359 396.606C114.551 397.467 113.464 397.898 112.099 397.898ZM112.204 389.689C111.278 389.689 110.546 390.005 110.007 390.638C109.468 391.265 109.198 392.132 109.198 393.239C109.198 394.306 109.471 395.147 110.016 395.762C110.561 396.377 111.29 396.685 112.204 396.685C113.136 396.685 113.851 396.383 114.349 395.779C114.853 395.176 115.104 394.317 115.104 393.204C115.104 392.079 114.853 391.212 114.349 390.603C113.851 389.993 113.136 389.689 112.204 389.689ZM123.331 385.628C123.05 385.47 122.73 385.391 122.373 385.391C121.365 385.391 120.861 386.026 120.861 387.298V388.687H122.971V389.917H120.861V397.687H119.429V389.917H117.891V388.687H119.429V387.228C119.429 386.284 119.701 385.54 120.246 384.995C120.791 384.444 121.471 384.169 122.285 384.169C122.725 384.169 123.073 384.222 123.331 384.327V385.628ZM125.265 386.401C125.007 386.401 124.787 386.314 124.605 386.138C124.424 385.962 124.333 385.739 124.333 385.47C124.333 385.2 124.424 384.978 124.605 384.802C124.787 384.62 125.007 384.529 125.265 384.529C125.528 384.529 125.751 384.62 125.933 384.802C126.12 384.978 126.214 385.2 126.214 385.47C126.214 385.728 126.12 385.947 125.933 386.129C125.751 386.311 125.528 386.401 125.265 386.401ZM125.968 397.687H124.526V388.687H125.968V397.687ZM135.328 397.687H133.887V396.28H133.852C133.225 397.358 132.302 397.898 131.083 397.898C130.187 397.898 129.483 397.66 128.974 397.186C128.47 396.711 128.218 396.081 128.218 395.296C128.218 393.614 129.208 392.636 131.188 392.36L133.887 391.982C133.887 390.453 133.269 389.689 132.032 389.689C130.948 389.689 129.97 390.058 129.097 390.796V389.319C129.981 388.757 131.001 388.476 132.155 388.476C134.271 388.476 135.328 389.595 135.328 391.833V397.687ZM133.887 393.134L131.716 393.433C131.048 393.526 130.544 393.693 130.204 393.934C129.864 394.168 129.694 394.587 129.694 395.19C129.694 395.63 129.85 395.99 130.16 396.272C130.477 396.547 130.896 396.685 131.417 396.685C132.132 396.685 132.721 396.436 133.184 395.938C133.652 395.434 133.887 394.798 133.887 394.03V393.134ZM146.815 393.995H146.771C146.344 395.39 145.503 396.087 144.249 396.087C143.446 396.087 142.799 395.791 142.307 395.199C141.82 394.607 141.577 393.811 141.577 392.809C141.577 391.484 141.914 390.386 142.588 389.513C143.268 388.634 144.158 388.194 145.26 388.194C145.682 388.194 146.057 388.303 146.385 388.52C146.719 388.736 146.933 389.009 147.026 389.337H147.062C147.073 389.173 147.103 388.836 147.149 388.326H148.248C147.973 391.555 147.835 393.198 147.835 393.257C147.835 394.47 148.184 395.076 148.881 395.076C149.514 395.076 150.038 394.733 150.454 394.048C150.876 393.362 151.087 392.475 151.087 391.385C151.087 389.773 150.577 388.458 149.558 387.439C148.538 386.419 147.126 385.909 145.321 385.909C143.581 385.909 142.143 386.519 141.006 387.737C139.869 388.956 139.301 390.48 139.301 392.308C139.301 394.107 139.84 395.56 140.918 396.667C142.002 397.769 143.461 398.319 145.295 398.319C146.742 398.319 147.979 398.079 149.004 397.599V398.689C147.99 399.122 146.725 399.339 145.207 399.339C143.074 399.339 141.354 398.697 140.048 397.414C138.747 396.125 138.097 394.44 138.097 392.36C138.097 390.216 138.779 388.438 140.145 387.025C141.516 385.613 143.265 384.907 145.392 384.907C147.384 384.907 149.033 385.499 150.34 386.683C151.646 387.866 152.3 389.41 152.3 391.315C152.3 392.709 151.954 393.855 151.263 394.751C150.577 395.642 149.739 396.087 148.749 396.087C147.466 396.087 146.821 395.39 146.815 393.995ZM145.242 389.214C144.516 389.214 143.927 389.56 143.476 390.251C143.03 390.942 142.808 391.801 142.808 392.826C142.808 393.518 142.957 394.063 143.256 394.461C143.561 394.859 143.965 395.059 144.469 395.059C145.195 395.059 145.77 394.698 146.191 393.978C146.619 393.251 146.833 392.29 146.833 391.095C146.833 389.841 146.303 389.214 145.242 389.214ZM162.398 388.687L158.259 399.128C157.521 400.991 156.483 401.923 155.147 401.923C154.772 401.923 154.459 401.885 154.207 401.809V400.517C154.518 400.622 154.802 400.675 155.06 400.675C155.786 400.675 156.331 400.241 156.694 399.374L157.415 397.669L153.899 388.687H155.499L157.934 395.612C157.963 395.7 158.024 395.929 158.118 396.298H158.171C158.2 396.157 158.259 395.935 158.347 395.63L160.904 388.687H162.398ZM170.396 397.687H168.955V396.28H168.92C168.293 397.358 167.37 397.898 166.151 397.898C165.255 397.898 164.552 397.66 164.042 397.186C163.538 396.711 163.286 396.081 163.286 395.296C163.286 393.614 164.276 392.636 166.257 392.36L168.955 391.982C168.955 390.453 168.337 389.689 167.101 389.689C166.017 389.689 165.038 390.058 164.165 390.796V389.319C165.05 388.757 166.069 388.476 167.224 388.476C169.339 388.476 170.396 389.595 170.396 391.833V397.687ZM168.955 393.134L166.784 393.433C166.116 393.526 165.612 393.693 165.272 393.934C164.933 394.168 164.763 394.587 164.763 395.19C164.763 395.63 164.918 395.99 165.229 396.272C165.545 396.547 165.964 396.685 166.485 396.685C167.2 396.685 167.789 396.436 168.252 395.938C168.721 395.434 168.955 394.798 168.955 394.03V393.134ZM180.583 397.687H179.142V392.554C179.142 390.644 178.444 389.689 177.05 389.689C176.329 389.689 175.731 389.961 175.257 390.506C174.788 391.045 174.554 391.728 174.554 392.554V397.687H173.112V388.687H174.554V390.181H174.589C175.269 389.044 176.253 388.476 177.542 388.476C178.526 388.476 179.279 388.795 179.801 389.434C180.322 390.066 180.583 390.983 180.583 392.185V397.687ZM190.989 397.687H189.548V396.157H189.513C188.845 397.317 187.813 397.898 186.419 397.898C185.288 397.898 184.383 397.496 183.703 396.693C183.029 395.885 182.692 394.786 182.692 393.398C182.692 391.909 183.067 390.717 183.817 389.82C184.567 388.924 185.566 388.476 186.814 388.476C188.051 388.476 188.95 388.962 189.513 389.935H189.548V384.362H190.989V397.687ZM189.548 393.617V392.29C189.548 391.564 189.308 390.948 188.827 390.444C188.347 389.94 187.737 389.689 186.999 389.689C186.12 389.689 185.429 390.011 184.925 390.655C184.421 391.3 184.169 392.19 184.169 393.327C184.169 394.364 184.409 395.185 184.89 395.788C185.376 396.386 186.026 396.685 186.841 396.685C187.644 396.685 188.294 396.395 188.792 395.815C189.296 395.234 189.548 394.502 189.548 393.617ZM201.141 393.547H194.786C194.81 394.549 195.079 395.322 195.595 395.867C196.11 396.412 196.819 396.685 197.722 396.685C198.735 396.685 199.667 396.351 200.517 395.683V397.036C199.726 397.61 198.68 397.898 197.379 397.898C196.107 397.898 195.108 397.49 194.382 396.676C193.655 395.856 193.292 394.704 193.292 393.222C193.292 391.821 193.688 390.682 194.479 389.803C195.275 388.918 196.263 388.476 197.44 388.476C198.618 388.476 199.529 388.857 200.174 389.618C200.818 390.38 201.141 391.438 201.141 392.791V393.547ZM199.664 392.325C199.658 391.493 199.456 390.846 199.058 390.383C198.665 389.92 198.117 389.689 197.414 389.689C196.734 389.689 196.157 389.932 195.683 390.418C195.208 390.904 194.915 391.54 194.804 392.325H199.664ZM209.903 388.687L206.88 393.239L209.851 397.687H208.172L206.405 394.769C206.294 394.587 206.162 394.358 206.01 394.083H205.975C205.945 394.136 205.808 394.364 205.562 394.769L203.76 397.687H202.099L205.166 393.274L202.23 388.687H203.909L205.649 391.763C205.778 391.991 205.904 392.226 206.027 392.466H206.062L208.312 388.687H209.903ZM212.092 397.88C211.822 397.88 211.591 397.783 211.397 397.59C211.21 397.397 211.116 397.165 211.116 396.896C211.116 396.626 211.21 396.395 211.397 396.201C211.591 396.002 211.822 395.902 212.092 395.902C212.367 395.902 212.602 396.002 212.795 396.201C212.988 396.395 213.085 396.626 213.085 396.896C213.085 397.165 212.988 397.397 212.795 397.59C212.602 397.783 212.367 397.88 212.092 397.88ZM220.187 390.146C219.935 389.952 219.571 389.856 219.097 389.856C218.481 389.856 217.966 390.146 217.55 390.726C217.14 391.306 216.935 392.097 216.935 393.099V397.687H215.493V388.687H216.935V390.541H216.97C217.175 389.908 217.488 389.416 217.91 389.065C218.332 388.707 218.804 388.528 219.325 388.528C219.7 388.528 219.987 388.569 220.187 388.651V390.146ZM229.028 397.687H227.587V396.263H227.552C226.954 397.353 226.028 397.898 224.774 397.898C222.63 397.898 221.558 396.62 221.558 394.065V388.687H222.99V393.837C222.99 395.735 223.717 396.685 225.17 396.685C225.873 396.685 226.45 396.427 226.901 395.911C227.358 395.39 227.587 394.71 227.587 393.872V388.687H229.028V397.687Z" fill="#8C888A"/>
<rect y="443.885" width="548.827" height="91.4712" rx="8" fill="#FAFAFA"/>
<path d="M30.1729 497.205C29.4541 497.205 28.8369 496.947 28.3213 496.431C27.8213 495.916 27.5713 495.298 27.5713 494.58C27.5713 493.845 27.8213 493.22 28.3213 492.705C28.8369 492.189 29.4541 491.931 30.1729 491.931C30.9072 491.931 31.5322 492.189 32.0479 492.705C32.5635 493.22 32.8213 493.845 32.8213 494.58C32.8213 495.298 32.5635 495.916 32.0479 496.431C31.5322 496.947 30.9072 497.205 30.1729 497.205ZM40.5791 497.205C39.8604 497.205 39.2432 496.947 38.7275 496.431C38.2275 495.916 37.9775 495.298 37.9775 494.58C37.9775 493.845 38.2275 493.22 38.7275 492.705C39.2432 492.189 39.8604 491.931 40.5791 491.931C41.3135 491.931 41.9385 492.189 42.4541 492.705C42.9697 493.22 43.2275 493.845 43.2275 494.58C43.2275 495.298 42.9697 495.916 42.4541 496.431C41.9385 496.947 41.3135 497.205 40.5791 497.205ZM50.9854 497.205C50.2666 497.205 49.6494 496.947 49.1338 496.431C48.6338 495.916 48.3838 495.298 48.3838 494.58C48.3838 493.845 48.6338 493.22 49.1338 492.705C49.6494 492.189 50.2666 491.931 50.9854 491.931C51.7197 491.931 52.3447 492.189 52.8604 492.705C53.376 493.22 53.6338 493.845 53.6338 494.58C53.6338 495.298 53.376 495.916 52.8604 496.431C52.3447 496.947 51.7197 497.205 50.9854 497.205ZM61.3916 497.205C60.6729 497.205 60.0557 496.947 59.54 496.431C59.04 495.916 58.79 495.298 58.79 494.58C58.79 493.845 59.04 493.22 59.54 492.705C60.0557 492.189 60.6729 491.931 61.3916 491.931C62.126 491.931 62.751 492.189 63.2666 492.705C63.7822 493.22 64.04 493.845 64.04 494.58C64.04 495.298 63.7822 495.916 63.2666 496.431C62.751 496.947 62.126 497.205 61.3916 497.205ZM71.7979 497.205C71.0791 497.205 70.4619 496.947 69.9463 496.431C69.4463 495.916 69.1963 495.298 69.1963 494.58C69.1963 493.845 69.4463 493.22 69.9463 492.705C70.4619 492.189 71.0791 491.931 71.7979 491.931C72.5322 491.931 73.1572 492.189 73.6729 492.705C74.1885 493.22 74.4463 493.845 74.4463 494.58C74.4463 495.298 74.1885 495.916 73.6729 496.431C73.1572 496.947 72.5322 497.205 71.7979 497.205ZM82.2041 497.205C81.4854 497.205 80.8682 496.947 80.3525 496.431C79.8525 495.916 79.6025 495.298 79.6025 494.58C79.6025 493.845 79.8525 493.22 80.3525 492.705C80.8682 492.189 81.4854 491.931 82.2041 491.931C82.9385 491.931 83.5635 492.189 84.0791 492.705C84.5947 493.22 84.8525 493.845 84.8525 494.58C84.8525 495.298 84.5947 495.916 84.0791 496.431C83.5635 496.947 82.9385 497.205 82.2041 497.205ZM92.6104 497.205C91.8916 497.205 91.2744 496.947 90.7588 496.431C90.2588 495.916 90.0088 495.298 90.0088 494.58C90.0088 493.845 90.2588 493.22 90.7588 492.705C91.2744 492.189 91.8916 491.931 92.6104 491.931C93.3447 491.931 93.9697 492.189 94.4854 492.705C95.001 493.22 95.2588 493.845 95.2588 494.58C95.2588 495.298 95.001 495.916 94.4854 496.431C93.9697 496.947 93.3447 497.205 92.6104 497.205ZM103.017 497.205C102.298 497.205 101.681 496.947 101.165 496.431C100.665 495.916 100.415 495.298 100.415 494.58C100.415 493.845 100.665 493.22 101.165 492.705C101.681 492.189 102.298 491.931 103.017 491.931C103.751 491.931 104.376 492.189 104.892 492.705C105.407 493.22 105.665 493.845 105.665 494.58C105.665 495.298 105.407 495.916 104.892 496.431C104.376 496.947 103.751 497.205 103.017 497.205ZM113.423 497.205C112.704 497.205 112.087 496.947 111.571 496.431C111.071 495.916 110.821 495.298 110.821 494.58C110.821 493.845 111.071 493.22 111.571 492.705C112.087 492.189 112.704 491.931 113.423 491.931C114.157 491.931 114.782 492.189 115.298 492.705C115.813 493.22 116.071 493.845 116.071 494.58C116.071 495.298 115.813 495.916 115.298 496.431C114.782 496.947 114.157 497.205 113.423 497.205ZM123.829 497.205C123.11 497.205 122.493 496.947 121.978 496.431C121.478 495.916 121.228 495.298 121.228 494.58C121.228 493.845 121.478 493.22 121.978 492.705C122.493 492.189 123.11 491.931 123.829 491.931C124.563 491.931 125.188 492.189 125.704 492.705C126.22 493.22 126.478 493.845 126.478 494.58C126.478 495.298 126.22 495.916 125.704 496.431C125.188 496.947 124.563 497.205 123.829 497.205ZM134.235 497.205C133.517 497.205 132.899 496.947 132.384 496.431C131.884 495.916 131.634 495.298 131.634 494.58C131.634 493.845 131.884 493.22 132.384 492.705C132.899 492.189 133.517 491.931 134.235 491.931C134.97 491.931 135.595 492.189 136.11 492.705C136.626 493.22 136.884 493.845 136.884 494.58C136.884 495.298 136.626 495.916 136.11 496.431C135.595 496.947 134.97 497.205 134.235 497.205ZM144.642 497.205C143.923 497.205 143.306 496.947 142.79 496.431C142.29 495.916 142.04 495.298 142.04 494.58C142.04 493.845 142.29 493.22 142.79 492.705C143.306 492.189 143.923 491.931 144.642 491.931C145.376 491.931 146.001 492.189 146.517 492.705C147.032 493.22 147.29 493.845 147.29 494.58C147.29 495.298 147.032 495.916 146.517 496.431C146.001 496.947 145.376 497.205 144.642 497.205ZM155.048 497.205C154.329 497.205 153.712 496.947 153.196 496.431C152.696 495.916 152.446 495.298 152.446 494.58C152.446 493.845 152.696 493.22 153.196 492.705C153.712 492.189 154.329 491.931 155.048 491.931C155.782 491.931 156.407 492.189 156.923 492.705C157.438 493.22 157.696 493.845 157.696 494.58C157.696 495.298 157.438 495.916 156.923 496.431C156.407 496.947 155.782 497.205 155.048 497.205ZM165.454 497.205C164.735 497.205 164.118 496.947 163.603 496.431C163.103 495.916 162.853 495.298 162.853 494.58C162.853 493.845 163.103 493.22 163.603 492.705C164.118 492.189 164.735 491.931 165.454 491.931C166.188 491.931 166.813 492.189 167.329 492.705C167.845 493.22 168.103 493.845 168.103 494.58C168.103 495.298 167.845 495.916 167.329 496.431C166.813 496.947 166.188 497.205 165.454 497.205ZM175.86 497.205C175.142 497.205 174.524 496.947 174.009 496.431C173.509 495.916 173.259 495.298 173.259 494.58C173.259 493.845 173.509 493.22 174.009 492.705C174.524 492.189 175.142 491.931 175.86 491.931C176.595 491.931 177.22 492.189 177.735 492.705C178.251 493.22 178.509 493.845 178.509 494.58C178.509 495.298 178.251 495.916 177.735 496.431C177.22 496.947 176.595 497.205 175.86 497.205ZM186.267 497.205C185.548 497.205 184.931 496.947 184.415 496.431C183.915 495.916 183.665 495.298 183.665 494.58C183.665 493.845 183.915 493.22 184.415 492.705C184.931 492.189 185.548 491.931 186.267 491.931C187.001 491.931 187.626 492.189 188.142 492.705C188.657 493.22 188.915 493.845 188.915 494.58C188.915 495.298 188.657 495.916 188.142 496.431C187.626 496.947 187.001 497.205 186.267 497.205ZM196.673 497.205C195.954 497.205 195.337 496.947 194.821 496.431C194.321 495.916 194.071 495.298 194.071 494.58C194.071 493.845 194.321 493.22 194.821 492.705C195.337 492.189 195.954 491.931 196.673 491.931C197.407 491.931 198.032 492.189 198.548 492.705C199.063 493.22 199.321 493.845 199.321 494.58C199.321 495.298 199.063 495.916 198.548 496.431C198.032 496.947 197.407 497.205 196.673 497.205Z" fill="#8C888A"/>
</svg>
